<svg height="512pt" viewBox="0 -21 512 512" width="512pt" xmlns="http://www.w3.org/2000/svg"><path d="m152.085938 51.871094c0-2.75-2.25-5-5-5h-37.050782c-2.75 0-5-2.25-5-5v-36.871094c0-2.75-2.25-5-5-5h-40.488281c-2.75 0-5 2.25-5 5v36.871094c0 2.75-2.25 5-5 5h-37.046875c-2.75 0-5 2.25-5 5v40.300781c0 2.75 2.25 5 5 5h37.046875c2.75 0 5 2.25 5 5v36.871094c0 2.75 2.25 5 5 5h40.488281c2.75 0 5-2.25 5-5v-36.871094c0-2.75 2.25-5 5-5h37.050782c2.75 0 5-2.25 5-5zm0 0" fill="#5dc647"/><path d="m51.742188 419.125c-12.4375-30.886719-9.652344-66.652344 8.917968-95.664062 2.9375-4.589844 1.601563-10.695313-2.988281-13.636719-4.589844-2.941407-10.695313-1.601563-13.636719 2.992187-27.789062 43.414063-25.832031 99.578125 4.570313 140.847656.339843-12.46875 1.453125-23.964843 3.136719-34.539062zm0 0" fill="#424f59"/><path d="m170.207031 397.089844v2.363281h1v-67.199219c-8.957031 4.636719-19.367187 7.308594-30.472656 7.308594-18.003906 0-34.191406-7-45.292969-18.082031-4.640625 4.863281-9.726562 10.917969-14.761718 18.292969-14.46875 21.179687-31.882813 58.382812-33.121094 115.597656h45.683594v-58.28125c0-4.960938 4.039062-9 9-9h5.660156c4.960937 0 9 4.039062 9 9v47.21875c0 3.308594 2.691406 6 6 6h1.191406c2.203125 0 4 1.792968 4 4v1.0625h18.457031v-58.28125c0-4.960938 4.035157-9 9-9h5.65625c4.964844 0 9 4.039062 9 9zm0 0" fill="#242b30"/><path d="m501.105469 306.644531c-.515625-1.996093-2.304688-3.359375-4.304688-3.359375-.171875 0-.34375.011719-.519531.03125-2.203125.257813-3.886719 2.117188-3.9375 4.355469-.582031 25.277344-16.15625 43.898437-29.734375 55.382813 3.296875 15.191406 5.160156 31.109374 5.570313 47.648437 19.945312-11.976563 32.089843-31.90625 35.398437-58.460937 2.996094-24.007813-2.25-44.726563-2.472656-45.597657zm0 0" fill="#d19546"/><path d="m224.058594 138.144531c0-8.78125 1.710937-17.160156 4.785156-24.84375h-17.703125c-4.101563 0-8.058594.605469-11.800781 1.71875 1.855468 2.226563 2.980468 5.097657 2.980468 8.226563 0 7.058594-5.6875 12.796875-12.679687 12.796875h-14.335937c-.394532 0-.789063-.023438-1.175782-.058594-2.988281 5.792969-4.6875 12.375-4.6875 19.359375 0 23.21875 18.667969 42.039062 41.699219 42.039062h48.871094c-21.324219-11.046874-35.953125-33.445312-35.953125-59.238281zm0 0" fill="#b2762f"/><path d="m290.066406 71.578125c1.59375 0 3.3125.074219 5.25.230469h.078125c.257813 0 .503907-.097656.691407-.273438.203124-.195312.316406-.46875.308593-.75-.136719-5.335937.503907-10.605468 1.84375-15.671875-1.929687-2.839843-4.140625-5.542969-6.644531-8.066406-7.28125-7.335937-16.402344-12.472656-26.382812-14.851563-.386719-.09375-.773438-.136718-1.160157-.136718-1.480469 0-2.910156.660156-3.875 1.839844-12.136719 14.886718-15.449219 34.199218-10.28125 51.480468 11.136719-8.644531 25.066407-13.800781 40.171875-13.800781zm0 0" fill="#b2762f"/><path d="m290.066406 205.710938c-36.949218 0-67.007812-30.308594-67.007812-67.566407 0-37.253906 30.058594-67.566406 67.007812-67.566406 1.621094 0 3.363282.074219 5.328125.230469-.347656-13.453125 4.097657-26.5625 12.523438-36.90625.964843-1.183594 2.394531-1.84375 3.878906-1.84375.382813 0 .773437.046875 1.15625.136718 9.980469 2.378907 19.101563 7.515626 26.382813 14.851563 16.152343 16.289063 20.734374 41.359375 11.398437 62.386719 4.210937 9.03125 6.347656 18.691406 6.347656 28.710937 0 37.257813-30.0625 67.566407-67.015625 67.566407zm0 0" fill="#d19546"/><path d="m203.320312 123.246094c0 7.617187-6.125 13.796875-13.679687 13.796875h-14.335937c-7.554688 0-13.683594-6.179688-13.683594-13.796875 0-7.617188 6.128906-13.792969 13.683594-13.792969h14.335937c7.554687 0 13.679687 6.175781 13.679687 13.792969zm0 0" fill="#775436"/><path d="m307.242188 455.371094v-37.617188h53.417968c2.785156-1.324218 5.6875-2.335937 8.664063-2.984375.328125-.070312.597656-.296875.71875-.609375.121093-.308594.082031-.660156-.105469-.933594-6.4375-9.335937-9.839844-20.289062-9.839844-31.675781 0-30.640625 24.722656-55.570312 55.113282-55.570312h37.003906c-28.480469-69.546875-83.5625-98.285157-93.363282-102.941407l-12.183593-50.675781c-11.558594 19.367188-32.601563 32.351563-56.601563 32.351563-9.679687 0-18.871094-2.128906-27.160156-5.921875v214.050781h-14.003906c-22.996094 0-41.699219 18.863281-41.699219 42.046875 0 .160156.011719.320313.023437.480469zm0 0" fill="#d19546"/><path d="m307.242188 455.371094v-115.394532c0-8.25-6.75-15-15-15h-14.335938c-8.25 0-15 6.75-15 15v72.867188h-14.003906c-22.996094 0-41.699219 18.859375-41.699219 42.042969 0 .164062.011719.324219.023437.484375zm0 0" fill="#b2762f"/><path d="m469.253906 455.371094c.007813-.160156.023438-.320313.023438-.484375v-37.132813c0-36.890625-6.988282-67.542968-17.472656-92.773437h-36.59375c-30.988282 0-56.113282 25.328125-56.113282 56.570312 0 11.984375 3.710938 23.09375 10.015625 32.242188-3.789062.824219-7.382812 2.175781-10.714843 3.960937-13.183594 7.066406-22.191407 21.054688-22.191407 37.132813 0 .164062.011719.324219.023438.484375zm0 0" fill="#b2762f"/><path d="m93.242188 465.902344v-11.53125h-85.742188c-4.140625 0-7.5 3.359375-7.5 7.5s3.359375 7.5 7.5 7.5h87.785156c-1.210937-.6875-2.042968-1.976563-2.042968-3.46875zm0 0" fill="#775436"/><path d="m146.546875 465.902344v-11.53125h-18.453125v11.53125c0 1.492187-.832031 2.78125-2.042969 3.46875h22.542969c-1.214844-.6875-2.046875-1.976563-2.046875-3.46875zm0 0" fill="#775436"/><path d="m504.5 454.371094h-322.128906v11.53125c0 1.492187-.828125 2.78125-2.042969 3.46875h324.171875c4.140625 0 7.5-3.359375 7.5-7.5s-3.359375-7.5-7.5-7.5zm0 0" fill="#775436"/><path d="m113.253906 238.222656c-.042968-.042968-.082031-.089844-.125-.132812-11.191406-11.195313-27.574218-15.355469-42.761718-10.855469-.507813.148437-.957032.425781-1.320313.785156-.363281.363281-.636719.816407-.785156 1.320313-4.5 15.195312-.34375 31.585937 10.847656 42.78125.804687.808594 1.644531 1.566406 2.503906 2.300781 3.933594-15.808594 15.765625-29.011719 31.640625-36.199219zm0 0" fill="#242b30"/><path d="m213.21875 229.34375c-.152344-.507812-.421875-.960938-.785156-1.324219-.363282-.359375-.816406-.636719-1.320313-.785156-15.191406-4.496094-31.574219-.339844-42.761719 10.855469-.042968.042968-.082031.089844-.125.132812 15.871094 7.191406 27.703126 20.394532 31.636719 36.199219.859375-.734375 1.699219-1.492187 2.503907-2.296875 11.191406-11.199219 15.347656-27.589844 10.851562-42.78125zm0 0" fill="#242b30"/><path d="m202.292969 285.960938c0-30.15625-27.558594-54.605469-61.554688-54.605469-33.996093 0-61.554687 24.449219-61.554687 54.605469s27.558594 54.601562 61.554687 54.601562c33.996094 0 61.554688-24.445312 61.554688-54.601562zm0 0" fill="#424f59"/><g fill="#242b30"><path d="m121.988281 285.953125c-4.144531 0-7.5-3.359375-7.5-7.5v-8.539063c0-4.140624 3.355469-7.5 7.5-7.5 4.140625 0 7.5 3.359376 7.5 7.5v8.539063c0 4.140625-3.359375 7.5-7.5 7.5zm0 0"/><path d="m159.488281 285.953125c-4.140625 0-7.5-3.359375-7.5-7.5v-8.539063c0-4.140624 3.359375-7.5 7.5-7.5 4.144531 0 7.5 3.359376 7.5 7.5v8.539063c0 4.140625-3.355469 7.5-7.5 7.5zm0 0"/><path d="m151.757812 318.972656c-4 0-7.8125-1.1875-11.019531-3.3125-3.207031 2.125-7.019531 3.3125-11.019531 3.3125-11.011719 0-19.972656-8.960937-19.972656-19.972656 0-4.140625 3.359375-7.5 7.5-7.5 4.144531 0 7.5 3.359375 7.5 7.5 0 2.742188 2.230468 4.972656 4.972656 4.972656 1.84375 0 3.523438-1.019531 4.394531-2.652344 1.296875-2.457031 3.847657-3.988281 6.625-3.988281 2.777344 0 5.328125 1.53125 6.628907 3.988281.867187 1.632813 2.550781 2.652344 4.394531 2.652344 2.738281 0 4.96875-2.230468 4.96875-4.972656 0-4.140625 3.359375-7.5 7.5-7.5s7.5 3.359375 7.5 7.5c0 11.011719-8.960938 19.972656-19.972657 19.972656zm0 0"/></g><path d="m124.09375 449.308594h-1.191406c-2.75 0-5-2.25-5-5v-47.21875c0-5.5-4.5-10-10-10h-5.660156c-5.5 0-10 4.5-10 10v68.8125c0 2.75 2.25 5 5 5h26.851562c2.75 0 5-2.25 5-5v-11.59375c0-2.75-2.25-5-5-5zm0 0" fill="#424f59"/><path d="m178.371094 449.308594h-2.164063c-2.75 0-5-2.25-5-5v-47.21875c0-5.5-4.5-10-10-10h-5.660156c-5.5 0-10 4.5-10 10v68.8125c0 2.75 2.25 5 5 5h27.824219c2.75 0 5-2.25 5-5v-11.59375c0-2.75-2.25-5-5-5zm0 0" fill="#424f59"/><path d="m268.382812 138.421875c-4.144531 0-7.5-3.359375-7.5-7.5v-18.394531c0-4.140625 3.355469-7.5 7.5-7.5 4.140626 0 7.5 3.359375 7.5 7.5v18.394531c0 4.140625-3.359374 7.5-7.5 7.5zm0 0" fill="#634229"/></svg>