<?xml version="1.0" encoding="iso-8859-1"?>
<!-- Generator: Adobe Illustrator 19.0.0, SVG Export Plug-In . SVG Version: 6.00 Build 0)  -->
<svg version="1.1" id="Layer_1" xmlns="http://www.w3.org/2000/svg" xmlns:xlink="http://www.w3.org/1999/xlink" x="0px" y="0px"
	 viewBox="0 0 512 512" style="enable-background:new 0 0 512 512;" xml:space="preserve">
<path style="fill:#FFDD00;" d="M357.68,184.823V71.777c0-17.508-14.193-31.701-31.701-31.701H0v287.101h263.172
	c0,0,0,88.574,0,108.56l0,0c0,19.986,16.201,36.187,36.187,36.187h58.322h154.317V184.823H357.68z"/>
<path style="fill:#79579E;" d="M357.393,358.914c0.191,1.46,0.287,2.942,0.287,4.45c0,4.378-0.777,8.565-2.189,12.453
	c-5.084,13.852-18.386,23.734-33.998,23.734h-22.131c-9.989,0-19.044,4.055-25.588,10.598c-0.538,0.538-1.065,1.089-1.543,1.662
	c-5.647,6.376-9.056,14.75-9.056,23.925V327.177h58.318c9.989,0,19.044,4.055,25.588,10.598
	C352.644,343.339,356.4,350.696,357.393,358.914z"/>
<path style="fill:#FF8522;" d="M357.68,135.776v36.187c0-19.99-16.197-36.187-36.187-36.187H0v-47.85h321.493
	c19.99,0,36.187,16.197,36.187,36.187V135.776z"/>
<path style="fill:#A67EFF;" d="M512,424.079v47.846H299.365c-19.989,0-36.185-16.196-36.185-36.185
	c0-9.174,3.406-17.554,9.049-23.928c6.614,7.523,16.321,12.267,27.136,12.267H512z"/>
<polygon style="fill:#FF8522;" points="511.997,232.673 511.997,280.523 357.68,280.523 357.68,279.327 357.68,267.664 
	357.68,232.673 "/>
<polygon style="fill:#FA496E;" points="511.997,184.823 511.997,232.673 357.68,232.673 357.68,231.477 357.68,219.814 
	357.68,184.823 "/>
<path style="fill:#52DBFF;" d="M512,376.223v47.856H299.365c-10.815,0-20.522-4.744-27.136-12.267
	c0.481-0.575,1.003-1.128,1.546-1.661c6.541-6.541,15.6-10.595,25.589-10.595h22.131c15.611,0,28.912-9.885,33.99-23.74l2.194,0.408
	H512z"/>
<path style="fill:#00DCAB;" d="M511.997,328.374v47.85H357.68l-2.189-0.406c1.412-3.888,2.189-8.075,2.189-12.453
	c0-1.508-0.096-2.99-0.287-4.45l0.287-0.036v-30.505H511.997z"/>
<path style="fill:#A67EFF;" d="M357.68,315.514v43.363l-0.282,0.042c-1.003-8.223-4.754-15.579-10.313-21.138
	c-6.551-6.551-15.6-10.606-25.589-10.606H0.003V279.33h321.492C341.484,279.33,357.68,295.526,357.68,315.514z"/>
<path style="fill:#FA496E;" d="M357.68,71.777v52.337c0-19.99-16.197-36.187-36.187-36.187H0V40.076h325.979
	C343.492,40.076,357.68,54.263,357.68,71.777z"/>
<path style="fill:#FF7224;" d="M357.68,124.132v43.363l-0.282,0.042c-1.003-8.223-4.754-15.579-10.313-21.138
	c-6.551-6.551-15.6-10.606-25.589-10.606h-22.904V87.947h22.904C341.484,87.947,357.68,104.143,357.68,124.132z"/>
<path style="fill:#E23760;" d="M357.68,76.286v43.363l-0.282,0.042c-1.003-8.223-4.754-15.579-10.313-21.138
	c-6.551-6.551-15.6-10.606-25.589-10.606h-22.904V40.102h22.904C341.484,40.102,357.68,56.298,357.68,76.286z"/>
<path style="fill:#52DBFF;" d="M357.68,279.327v1.196v34.99c0-19.99-16.197-36.187-36.187-36.187H0v-47.85h321.493
	c19.99,0,36.187,16.197,36.187,36.187V279.327z"/>
<path style="fill:#FFBC00;" d="M357.68,171.978v43.363l-0.282,0.042c-1.003-8.223-4.754-15.579-10.313-21.138
	c-6.551-6.551-15.6-10.606-25.589-10.606h-22.904v-47.846h22.904C341.484,135.793,357.68,151.989,357.68,171.978z"/>
<path style="fill:#00DCAB;" d="M357.68,231.477v1.196v34.99c0-19.99-16.197-36.187-36.187-36.187H0v-47.85h321.493
	c19.99,0,36.187,16.197,36.187,36.187V231.477z"/>
<path style="fill:#00AEFD;" d="M357.68,267.669v43.363l-0.282,0.042c-1.003-8.223-4.754-15.579-10.313-21.138
	c-6.551-6.551-15.6-10.606-25.589-10.606h-22.904v-47.846h22.904C341.484,231.484,357.68,247.68,357.68,267.669z"/>
<path style="fill:#02BC90;" d="M357.68,219.823v43.363l-0.282,0.042c-1.003-8.223-4.754-15.579-10.313-21.138
	c-6.551-6.551-15.6-10.606-25.589-10.606h-22.904v-47.846h22.904C341.484,183.639,357.68,199.834,357.68,219.823z"/>
<g>
	<path style="fill:#8666DD;" d="M395.118,424.079v47.846h-95.754c-19.989,0-36.185-16.196-36.185-36.185
		c0-9.174,3.406-17.554,9.049-23.928c6.614,7.523,16.321,12.267,27.136,12.267H395.118z"/>
	<path style="fill:#8666DD;" d="M357.68,315.514v43.363l-0.282,0.042c-1.003-8.223-4.754-15.579-10.313-21.138
		c-6.551-6.551-15.6-10.606-25.589-10.606h-22.904V279.33h22.904C341.484,279.33,357.68,295.526,357.68,315.514z"/>
</g>
<path style="fill:#00AEFD;" d="M395.118,376.223v47.856h-95.754c-10.815,0-20.522-4.744-27.136-12.267
	c0.481-0.575,1.003-1.128,1.546-1.661c6.541-6.541,15.6-10.595,25.589-10.595h22.131c15.611,0,28.912-9.885,33.99-23.74l2.194,0.408
	H395.118z"/>
<rect x="357.677" y="328.378" style="fill:#02BC90;" width="37.438" height="47.85"/>
<rect x="357.677" y="280.522" style="fill:#FFBC00;" width="37.438" height="47.85"/>
<rect x="357.677" y="232.676" style="fill:#FF7224;" width="37.438" height="47.85"/>
<rect x="357.677" y="184.82" style="fill:#E23760;" width="37.438" height="47.85"/>
<g>
</g>
<g>
</g>
<g>
</g>
<g>
</g>
<g>
</g>
<g>
</g>
<g>
</g>
<g>
</g>
<g>
</g>
<g>
</g>
<g>
</g>
<g>
</g>
<g>
</g>
<g>
</g>
<g>
</g>
</svg>
