<?xml version="1.0"?>
<svg xmlns="http://www.w3.org/2000/svg" id="Layer_1" data-name="Layer 1" viewBox="0 0 512 512" width="512" height="512"><title>Tram</title><path d="M256.994,180.5a6.968,6.968,0,0,1-3.339-.852l-57-31a7,7,0,0,1,.094-12.348l82-43a7,7,0,1,1,6.5,12.4l-70.393,36.913,45.487,24.739a7,7,0,0,1-3.351,13.15Z" style="fill:#e48e66"/><path d="M310,106.5H234a7,7,0,0,1,0-14h76a7,7,0,0,1,0,14Z" style="fill:#af593c"/><path d="M474.37,295.5h-65.5a19.994,19.994,0,0,1-20-20v-42a19.994,19.994,0,0,1,20-20h38.95l-8.47-26.16a20.005,20.005,0,0,0-19.03-13.84H44.87a19.994,19.994,0,0,0-20,20v150a19.994,19.994,0,0,0,20,20H177v-120H277v120H463.17a25.094,25.094,0,0,0,25.09-25.09ZM137,292.5a10,10,0,0,1-10,10H65a10,10,0,0,1-10-10v-39a10,10,0,0,1,10-10h62a10,10,0,0,1,10,10Zm211,0a10,10,0,0,1-10,10H316a10,10,0,0,1-10-10v-39a10,10,0,0,1,10-10h22a10,10,0,0,1,10,10Z" style="fill:#e48e66"/><path d="M447.82,213.5l26.55,82h-65.5a19.994,19.994,0,0,1-20-20v-42a19.994,19.994,0,0,1,20-20Z" style="fill:#f8ec7d"/><path d="M366,363.5h70a35,35,0,0,1-70,0Z" style="fill:#2561a1"/><rect x="306" y="243.5" width="42" height="59" rx="10" style="fill:#f8ec7d"/><path d="M277,363.5h62.33a35,35,0,0,1-70,0Z" style="fill:#2561a1"/><polygon points="277 243.5 277 363.5 269.33 363.5 242.67 363.5 227 363.5 227 361.5 227 243.5 277 243.5" style="fill:#6fe3ff"/><path d="M227,363.5h15.67a35,35,0,0,1-70,0H227Z" style="fill:#2561a1"/><polygon points="227 361.5 227 363.5 177 363.5 177 243.5 227 243.5 227 361.5" style="fill:#6fe3ff"/><path d="M76,363.5h70a35,35,0,0,1-70,0Z" style="fill:#2561a1"/><rect x="55" y="243.5" width="82" height="59" rx="10" style="fill:#f8ec7d"/></svg>
